<?xml version="1.0" encoding="UTF-8" standalone="no"?>
<svg
   xmlns:dc="http://purl.org/dc/elements/1.1/"
   xmlns:cc="http://creativecommons.org/ns#"
   xmlns:rdf="http://www.w3.org/1999/02/22-rdf-syntax-ns#"
   xmlns:svg="http://www.w3.org/2000/svg"
   xmlns="http://www.w3.org/2000/svg"
   width="165mm"
   height="165mm"
   viewBox="0 0 165 165"
   version="1.1"
   id="svg8">
  <defs
     id="defs2" />
  <metadata
     id="metadata5">
    <rdf:RDF>
      <cc:Work
         rdf:about="">
        <dc:format>image/svg+xml</dc:format>
        <dc:type
           rdf:resource="http://purl.org/dc/dcmitype/StillImage" />
        <dc:title></dc:title>
      </cc:Work>
    </rdf:RDF>
  </metadata>
  <g
     id="layer1">
    <g
       id="g908">
      <rect
         style="fill:#f9ffff;fill-opacity:1;stroke:#ffffff;stroke-width:0.382795;stroke-opacity:1"
         id="rect10"
         width="135.58351"
         height="125.10189"
         x="15.784085"
         y="11.135809"
         ry="6.1973505" />
      <path
         style="fill:#ffffff;stroke:#ffffff;stroke-width:1.08457;stroke-opacity:1;fill-opacity:1"
         d="m 146.23058,135.8172 -125.322141,-0.11472 62.709257,20.379 z"
         id="path26" />
      <path
         stroke="none"
         fill="#ff3300"
         d="m 64.468347,29.775534 h 10.04211 l 1.56799,0.551077 0.62863,1.377704 v 34.440396 l -0.62863,1.653653 -1.56799,0.55191 h -39.2271 l -1.88352,-0.55191 -0.62862,-1.653653 v -8.541109 l 0.62862,-1.653653 1.88352,-0.551922 h 18.51522 l 8.47291,-7.163613 V 31.703068 l 0.62863,-1.377704 1.568,-0.551079 m 37.030473,0 1.568,0.551079 0.62863,1.377704 v 16.531346 l 8.47314,7.163613 h 18.51524 l 1.88349,0.551922 0.62864,1.653653 v 8.541109 l -0.62864,1.653653 -1.88349,0.55191 H 91.456497 l -1.56801,-0.55191 -0.62861,-1.653653 V 31.704315 l 0.62861,-1.377704 1.56801,-0.551077 h 10.042093 m 0,88.167126 H 91.456497 l -1.56801,-0.55191 -0.62861,-1.37666 V 81.573691 l 0.62861,-1.653653 1.56801,-0.55191 H 130.6836 l 1.88349,0.55191 0.62864,1.653653 v 8.541321 l -0.62864,1.65365 -1.88349,0.551918 h -18.51524 l -8.47314,7.163613 v 16.531347 l -0.62863,1.37667 -1.568,0.55191 m -37.030473,0 -1.568,-0.55191 -0.62863,-1.37667 V 99.484193 l -8.47291,-7.163613 h -18.51522 l -1.88352,-0.551918 -0.62862,-1.65365 v -8.541321 l 0.62862,-1.653653 1.88352,-0.55191 h 39.2271 l 1.56799,0.55191 0.62863,1.653653 v 34.440399 l -0.62863,1.37666 -1.56799,0.55191 h -10.04211"
         id="path351"
         style="stroke-width:5.88095" />
    </g>
  </g>
</svg>
