<?xml version="1.0" encoding="UTF-8" standalone="no"?>
<svg
   xmlns:dc="http://purl.org/dc/elements/1.1/"
   xmlns:cc="http://creativecommons.org/ns#"
   xmlns:rdf="http://www.w3.org/1999/02/22-rdf-syntax-ns#"
   xmlns:svg="http://www.w3.org/2000/svg"
   xmlns="http://www.w3.org/2000/svg"
   width="165mm"
   height="165mm"
   viewBox="0 0 165 165"
   version="1.1"
   id="svg8">
  <defs
     id="defs2" />
  <metadata
     id="metadata5">
    <rdf:RDF>
      <cc:Work
         rdf:about="">
        <dc:format>image/svg+xml</dc:format>
        <dc:type
           rdf:resource="http://purl.org/dc/dcmitype/StillImage" />
        <dc:title></dc:title>
      </cc:Work>
    </rdf:RDF>
  </metadata>
  <g
     id="layer1">
    <g
       id="g894">
      <rect
         style="fill:#ffffff;fill-opacity:1;stroke:#ffffff;stroke-width:0.382795;stroke-opacity:1"
         id="rect10"
         width="135.58351"
         height="125.10189"
         x="15.784085"
         y="11.135809"
         ry="6.1973505" />
      <path
         style="fill:#ffffff;stroke:#ffffff;stroke-width:1.08457;stroke-opacity:1;fill-opacity:1"
         d="m 146.23058,135.8172 -125.322141,-0.11472 62.709257,20.379 z"
         id="path26" />
      <path
         stroke="none"
         fill="#312d2d"
         d="m 131.75928,35.439371 v 11.321558 l -0.8813,3.504079 -27.76971,40.973044 h 24.68431 q 1.76311,0 3.0854,1.61786 l 1.32278,3.773843 v 14.286685 l -1.32278,3.77386 -3.0854,1.61786 H 74.89775 q -1.76326,0 -3.08556,-1.61786 -1.32279,-1.61786 -1.32279,-3.77386 V 99.594895 l 1.10121,-3.50429 27.99012,-40.972829 H 75.99847 L 72.91289,53.499918 71.59011,49.726261 V 35.439567 q 0,-2.156387 1.32278,-3.773853 1.32278,-1.617858 3.08558,-1.617858 h 51.35214 q 1.7631,0 3.08554,1.617858 l 1.3228,3.773853 m -96.533,64.694083 V 89.351232 l 8.8157,-21.564631 h -8.8157 V 57.004194 H 61.67336 V 67.786601 L 52.8575,89.351232 h 8.81586 V 100.13365 H 35.22595"
         id="path299"
         style="stroke-width:4.87481" />
    </g>
  </g>
</svg>
