<?xml version="1.0" encoding="UTF-8" standalone="no"?>
<svg
   xmlns:dc="http://purl.org/dc/elements/1.1/"
   xmlns:cc="http://creativecommons.org/ns#"
   xmlns:rdf="http://www.w3.org/1999/02/22-rdf-syntax-ns#"
   xmlns:svg="http://www.w3.org/2000/svg"
   xmlns="http://www.w3.org/2000/svg"
   xmlns:xlink="http://www.w3.org/1999/xlink"
   xmlns:sodipodi="http://sodipodi.sourceforge.net/DTD/sodipodi-0.dtd"
   xmlns:inkscape="http://www.inkscape.org/namespaces/inkscape"
   version="1.1"
   preserveAspectRatio="none"
   x="0px"
   y="0px"
   width="720px"
   height="330px"
   viewBox="0 0 720 330"
   id="svg1819"
   sodipodi:docname="personaje_zombie.svg"
   inkscape:version="1.0.2-2 (e86c870879, 2021-01-15)">
  <metadata
     id="metadata1823">
    <rdf:RDF>
      <cc:Work
         rdf:about="">
        <dc:format>image/svg+xml</dc:format>
        <dc:type
           rdf:resource="http://purl.org/dc/dcmitype/StillImage" />
        <dc:title></dc:title>
      </cc:Work>
    </rdf:RDF>
  </metadata>
  <sodipodi:namedview
     pagecolor="#ffffff"
     bordercolor="#666666"
     borderopacity="1"
     objecttolerance="10"
     gridtolerance="10"
     guidetolerance="10"
     inkscape:pageopacity="0"
     inkscape:pageshadow="2"
     inkscape:window-width="1366"
     inkscape:window-height="705"
     id="namedview1821"
     showgrid="false"
     inkscape:zoom="1.3609369"
     inkscape:cx="315.98754"
     inkscape:cy="173.4832"
     inkscape:window-x="-8"
     inkscape:window-y="-8"
     inkscape:window-maximized="1"
     inkscape:current-layer="svg1819" />
  <defs
     id="defs134">
    <g
       id="Symbol_8_0_Layer0_0_FILL">
      <path
         fill="#AF7B48"
         stroke="none"
         d=" M 0.55 -6.9 L 0.5 -6.9 Q -0.1 -7 -0.65 -7 -5.7 -7.15 -9.2 3.05 L -11.05 7.45 -8.2 7.1 -4.3 6.65 -1.8 9.75 1.7 8.2 5.25 9.65 6.7 10.3 Q 5.81875 8.7310546875 6.2 5.9 L 6.85 2.3 Q 7.45 -0.9 5.6 -3.65 3.75 -6.35 0.55 -6.9 Z"
         id="path2" />
      <path
         fill="#2ECC71"
         stroke="none"
         d=" M 5.25 9.65 L 1.7 8.2 -1.8 9.75 -4.3 6.65 -8.2 7.1 Q -9.3400390625 16.0466796875 -8.95 22.25 -5.9 25.15 -1.4 26 2.5888671875 19.3240234375 5.25 9.65 Z"
         id="path4" />
    </g>
    <g
       id="Symbol_9_0_Layer0_0_FILL">
      <path
         fill="#2ECC71"
         stroke="none"
         d=" M 4.9 -1.85 Q 3.1 -6.8 0.65 -9 L -9 -6.45 Q -10.2 -6.15 -9.95 -5.05 L -9.8 -4.5 Q -7.1 7.6 -0.2 5.8 2.25 5.2 4.65 3.95 6.25 3.15 5.95 1.95 L 5.9 1.7 Q 5.5 0.25 5.1 -1.1 L 5.1 -1.05 4.9 -1.85 M -8.15 -3 Q -8.2 -3.45 -7.05 -4.15 -5.95 -4.85 -4.25 -5.45 -2.5 -6 -1.3 -6.15 0 -6.25 0.05 -5.85 0.15 -5.4 -0.95 -4.7 -2.05 -3.95 -3.8 -3.35 -5.5 -2.75 -6.75 -2.65 -8.05 -2.55 -8.15 -3 Z"
         id="path7" />
      <path
         fill="#29B665"
         stroke="none"
         d=" M -7.05 -4.15 Q -8.2 -3.45 -8.15 -3 -8.05 -2.55 -6.75 -2.65 -5.5 -2.75 -3.8 -3.35 -2.05 -3.95 -0.95 -4.7 0.15 -5.4 0.05 -5.85 0 -6.25 -1.3 -6.15 -2.5 -6 -4.25 -5.45 -5.95 -4.85 -7.05 -4.15 M 5.1 -1.1 Q 8.2 -5.45 0.65 -9 3.1 -6.8 4.9 -1.85 L 5.1 -1.05 5.1 -1.1 Z"
         id="path9" />
    </g>
    <g
       id="Symbol_18_0_Layer0_0_FILL">
      <path
         fill="#C48A51"
         stroke="none"
         d=" M 20 -21 L -19 -21 -19 5.9 20 5.9 20 -21 Z"
         id="path12" />
      <path
         fill="#8E643A"
         stroke="none"
         d=" M -19 5.9 L -19 10 20 10 20 5.9 -19 5.9 Z"
         id="path14" />
    </g>
    <g
       id="Symbol_18_0_Layer0_1_FILL">
      <path
         fill="#B17D49"
         stroke="none"
         d=" M -2.35 -0.8 L -5.05 -3.9 Q -5.1 -4 -5.3 -4 -5.45 -4.05 -5.6 -3.95 L -6.25 -3.5 Q -6.35 -3.45 -6.4 -3.3 -6.4 -3.15 -6.35 -3 L -4.55 0.85 Q -4.5 0.9 -4.5 0.95 L -1.9 3.9 Q -1.8 4 -1.6 4 -1.45 4.05 -1.3 3.95 L -0.75 3.55 Q -0.65 3.45 -0.6 3.3 -0.55 3.15 -0.6 3 L -2.3 -0.7 Q -2.3 -0.75 -2.35 -0.8 Z"
         id="path17" />
    </g>
    <g
       id="Symbol_18_0_Layer0_2_FILL">
      <path
         fill="#B17D49"
         stroke="none"
         d=" M 1.75 -16.25 Q 1.75 -16.1 1.8 -15.95 L 3.6 -12.1 Q 3.65 -12.05 3.65 -12 L 6.25 -9.05 Q 6.35 -8.95 6.55 -8.95 6.7 -8.9 6.85 -9 L 7.4 -9.4 Q 7.5 -9.5 7.55 -9.65 7.6 -9.8 7.55 -9.95 L 5.85 -13.65 Q 5.85 -13.7 5.8 -13.75 L 3.1 -16.85 Q 3.05 -16.95 2.85 -16.95 2.7 -17 2.55 -16.9 L 1.9 -16.45 Q 1.8 -16.4 1.75 -16.25 Z"
         id="path20" />
    </g>
    <g
       id="Symbol_18_0_Layer0_3_FILL">
      <path
         fill="#E05848"
         stroke="none"
         d=" M 821.95 97.45 Q 821.85 97.95 823.3 98.7 823.85 98.95 824.55 99.25 824.6 99.75 824.85 100.25 825.15 100.75 825.65 101.1 825.5 101.8 825.5 102.4 825.4 104.15 825.9 104.25 826.4 104.4 827.15 102.85 827.4 102.3 827.7 101.65 828.2 101.5 828.65 101.25 829.15 100.95 829.5 100.6 830.25 100.65 830.9 100.75 832.6 100.8 832.7 100.3 832.85 99.85 831.35 99.1 830.75 98.75 830.05 98.45 830 97.95 829.7 97.45 829.45 96.95 829.05 96.7 829.15 95.9 829.2 95.25 829.25 93.6 828.75 93.45 828.25 93.35 827.55 94.8 827.25 95.35 827 96.1 826.4 96.15 825.9 96.45 825.4 96.75 825.1 97.2 824.35 97.05 823.75 97.05 822.1 97 821.95 97.45 Z"
         id="path23" />
    </g>
    <g
       id="Symbol_17_0_Layer0_0_FILL">
      <path
         fill="#25A65B"
         stroke="none"
         d=" M -10.15 0.55 L -0.55 5.1 9.05 0.55 -10.15 0.55 Z"
         id="path26" />
      <path
         fill="#2ECC71"
         stroke="none"
         d=" M 18.75 -24.65 Q 18.1 -29.1 13.65 -29.1 L -16.7 -29.1 Q -21.1 -29.1 -21.8 -24.55 -23.3 -14.25 -21.8 -3.95 -21.1 0.55 -16.7 0.55 L -10.15 0.55 9.05 0.55 13.65 0.55 Q 18.1 0.55 18.8 -4 20.35 -14.1 18.75 -24.65 Z"
         id="path28" />
    </g>
    <g
       id="Symbol_17_0_Layer0_1_FILL">
      <path
         fill="#6B747B"
         stroke="none"
         d=" M 19.05 -41.85 Q 16.5802734375 -42.5087890625 14.15 -42.9 3.84609375 -41.0203125 -4.8 -35.85 L -7.7 -38.75 -24.95 -23.6 Q -24.21171875 -20.1357421875 -24.75 -17.15 -24.8591796875 -16.3068359375 -25.1 -15.5 -26.638671875 -10.1310546875 -22.05 -6.6 L -15.6 -6.6 -10.45 -2.2 0 -8.7 3.8 -6.7 9.55 -10.45 16.9 0 Q 20.675390625 -4.3125 19.55 -9.85 L 19.2 -11.3 Q 23.43671875 -24.1875 19.7 -37.1 L 17.2 -37.1 19.05 -41.85 M 16.45 -22.6 L 16.45 -22.6 8.95 -19.85 8.35 -21.15 16.45 -22.6 M -14.3 -22.25 L -15.7 -23.5 -10.2 -29.1 -14.3 -22.25 Z"
         id="path31" />
      <path
         fill="#79838C"
         stroke="none"
         d=" M -15.7 -23.5 L -14.3 -22.25 -10.2 -29.1 -15.7 -23.5 M 16.45 -22.6 L 16.45 -22.6 8.35 -21.15 8.95 -19.85 16.45 -22.6 Z"
         id="path33" />
      <path
         fill="#717B83"
         stroke="none"
         d=" M 19.2 -11.3 L 19.55 -9.85 Q 27.615234375 -22.025390625 25.05 -37.1 L 19.7 -37.1 Q 23.43671875 -24.1875 19.2 -11.3 M -7.7 -38.75 L -4.8 -35.85 Q 3.84609375 -41.0203125 14.15 -42.9 5.384765625 -44.227734375 -2.85 -41.85 L 0 -45.75 Q -9.221484375 -47.369921875 -14.9 -41.45 L -18.55 -37.75 -21.45 -39 -26.2 -27.9 Q -25.3431640625 -25.6625 -24.95 -23.6 L -7.7 -38.75 Z"
         id="path35" />
    </g>
    <g
       id="Symbol_16_0_Layer0_0_FILL">
      <path
         fill="#25A65B"
         stroke="none"
         d=" M -10.15 0.55 L -0.55 5.1 9.05 0.55 -10.15 0.55 Z"
         id="path38" />
      <path
         fill="#2ECC71"
         stroke="none"
         d=" M 18.75 -24.65 Q 18.1 -29.1 13.65 -29.1 L -16.7 -29.1 Q -21.1 -29.1 -21.8 -24.55 -23.3 -14.25 -21.8 -3.95 -21.1 0.55 -16.7 0.55 L -10.15 0.55 9.05 0.55 13.65 0.55 Q 18.1 0.55 18.8 -4 20.35 -14.1 18.75 -24.65 Z"
         id="path40" />
    </g>
    <g
       id="Symbol_16_0_Layer0_1_FILL">
      <path
         fill="#FFFFFF"
         stroke="none"
         d=" M -7.65 -9.6 Q -6.1 -9.6 -5.1 -10.75 -4.1818359375 -11.6681640625 -4.05 -12.9 L -11.3 -12.9 Q -11.134765625 -11.6681640625 -10.3 -10.75 -9.2 -9.6 -7.65 -9.6 M 10.95 -9.6 Q 12.5 -9.6 13.5 -10.75 14.4181640625 -11.6681640625 14.55 -12.9 L 7.3 -12.9 Q 7.465234375 -11.6681640625 8.3 -10.75 9.4 -9.6 10.95 -9.6 M 3.9 -6.1 L 3.4 -8 -2.8 -6.6 Q -3.15 -5.65 -3.15 -4.6 -3.15 -4.4 -3.15 -4.2 L 3.9 -6.1 Z"
         id="path43" />
      <path
         fill="#7F7058"
         stroke="none"
         d=" M 6.15 -8.55 Q 4.55 -10.2 2.3 -10.2 0.05 -10.2 -1.55 -8.55 -2.4 -7.7 -2.8 -6.6 L 3.4 -8 3.9 -6.1 7.2 -7.05 Q 6.8 -7.85 6.15 -8.55 Z"
         id="path45" />
      <path
         fill="#7E8991"
         stroke="none"
         d=" M 15.75 -17.7 Q 15.45 -18.05 15 -18.1 11.45 -18.6 7.9 -20.35 7.55 -20.55 7.15 -20.35 6.8 -20.2 6.6 -19.8 6.4 -19.4 6.5 -19.1 6.7 -18.7 7.05 -18.5 10.95 -16.7 14.75 -16.15 15.25 -16 15.55 -16.3 15.8 -16.6 15.85 -16.95 15.95 -17.4 15.75 -17.7 M -3.6 -18.7 Q -3.25 -18.9 -3.15 -19.25 -3 -19.65 -3.2 -19.95 -3.4 -20.4 -3.75 -20.5 -4.15 -20.65 -4.5 -20.45 -8.05 -18.7 -11.55 -18.05 -12.05 -17.95 -12.25 -17.7 -12.55 -17.35 -12.4 -16.95 -12.35 -16.5 -12.05 -16.3 -11.7 -16 -11.25 -16.05 -7.5 -16.7 -3.6 -18.7 Z"
         id="path47" />
    </g>
    <g
       id="Symbol_16_0_Layer0_2_FILL">
      <path
         fill="#28B162"
         stroke="none"
         d=" M -14.6 -10.5 Q -14.65 -10.6 -14.85 -10.6 -15 -10.65 -15.15 -10.55 L -15.8 -10.1 Q -15.9 -10.05 -15.95 -9.9 -15.95 -9.75 -15.9 -9.6 L -14.1 -5.75 Q -14.05 -5.7 -14.05 -5.65 L -11.45 -2.7 Q -11.35 -2.6 -11.15 -2.6 -11 -2.55 -10.85 -2.65 L -10.3 -3.05 Q -10.2 -3.15 -10.15 -3.3 -10.1 -3.45 -10.15 -3.6 L -11.85 -7.3 Q -11.85 -7.35 -11.9 -7.4 L -14.6 -10.5 Z"
         id="path50" />
    </g>
    <g
       id="Symbol_16_0_Layer0_3_FILL">
      <path
         fill="#717B83"
         stroke="none"
         d=" M -7.7 -38.75 L -4.8 -35.85 Q 3.84609375 -41.0203125 14.15 -42.9 5.384765625 -44.227734375 -2.85 -41.85 L 0 -45.75 Q -9.221484375 -47.369921875 -14.9 -41.45 L -18.55 -37.75 -21.45 -39 -26.2 -27.9 Q -25.3431640625 -25.6625 -24.95 -23.6 L -7.7 -38.75 M -12.65 -25 L -10.2 -29.1 -15.7 -23.5 -14.3 -22.25 -12.65 -25 M 19.2 -11.3 L 19.55 -9.85 Q 27.615234375 -22.025390625 25.05 -37.1 L 19.7 -37.1 Q 23.43671875 -24.1875 19.2 -11.3 M 8.95 -19.85 L 16.45 -22.6 16.45 -22.6 8.35 -21.15 8.95 -19.85 Z"
         id="path53" />
      <path
         fill="#000000"
         fill-opacity="0.10196078431372549"
         stroke="none"
         d=" M 1.7 -22.15 L 0 -26.85 -10.2 -29.1 -12.65 -25 1.7 -22.15 Z"
         id="path55" />
      <path
         fill="#6B747B"
         stroke="none"
         d=" M 19.05 -41.85 Q 16.5802734375 -42.5087890625 14.15 -42.9 3.84609375 -41.0203125 -4.8 -35.85 L -7.7 -38.75 -24.95 -23.6 Q -24.0095703125 -19.15390625 -25.1 -15.5 -26.638671875 -10.1310546875 -21.45 -5.85 L -16.7 -13.85 -18.8 -20.35 -15.7 -23.5 -10.2 -29.1 0 -26.85 1.7 -22.15 2.45 -20.1 8.35 -21.15 16.45 -22.6 16.45 -22.6 19.2 -11.3 Q 23.43671875 -24.1875 19.7 -37.1 L 17.2 -37.1 19.05 -41.85 Z"
         id="path57" />
    </g>
    <g
       id="Symbol_11_0_Layer0_0_FILL">
      <path
         fill="#E0C1A2"
         stroke="none"
         d=" M 9 11.05 L 9 7.65 -8.75 7.65 -8.75 11 -8.75 11.05 8.95 11.05 9 11.05 Z"
         id="path60" />
      <path
         fill="#AA7E5C"
         stroke="none"
         d=" M 8.95 16 L 8.95 11.05 -8.75 11.05 -8.75 11 Q -10.55 11.9 -12 13.85 L -12 16 8.95 16 Z"
         id="path62" />
      <path
         fill="#ECCFB1"
         stroke="none"
         d=" M 0.15 -7 L 0.1 -7 Q -3.6 -7 -6.15 -4.5 -8.75 -1.95 -8.75 1.7 L -8.75 7.65 9 7.65 9 1.7 Q 9 -1.95 6.45 -4.5 3.85 -7 0.15 -7 Z"
         id="path64" />
    </g>
    <g
       id="Symbol_10_0_Layer0_0_FILL">
      <path
         fill="#FAFAFA"
         stroke="none"
         d=" M 1.25 -1.25 L 5.9 -14.45 -3.25 -14.05 1.25 -1.25 Z"
         id="path67" />
      <path
         fill="#8E643A"
         stroke="none"
         d=" M 8.2 -21 L 5.9 -14.45 1.25 -1.25 8.45 -9.4 10.75 -12.05 13.2 -14.8 8.2 -21 M -3.25 -14.05 L -5.7 -21 -10.7 -14.8 1.25 -1.25 -3.25 -14.05 M -19 5.9 L -19 10 20 10 20 5.9 -19 5.9 Z"
         id="path69" />
      <path
         fill="#25A65B"
         stroke="none"
         d=" M 5.9 -14.45 L 8.2 -21 -5.7 -21 -3.25 -14.05 5.9 -14.45 Z"
         id="path71" />
      <path
         fill="#C48A51"
         stroke="none"
         d=" M 8.45 -9.4 L 1.25 -1.25 -10.7 -14.8 -5.7 -21 -19 -21 -19 5.9 20 5.9 20 -21 8.2 -21 13.2 -14.8 10.75 -12.05 16.2 -12.05 16.2 -9.4 8.45 -9.4 Z"
         id="path73" />
      <path
         fill="#B17D49"
         stroke="none"
         d=" M 16.2 -12.05 L 10.75 -12.05 8.45 -9.4 16.2 -9.4 16.2 -12.05 Z"
         id="path75" />
    </g>
    <g
       id="Symbol_10_0_Layer0_1_FILL">
      <path
         fill="#E05848"
         stroke="none"
         d=" M 8 -8.6 Q 7.8080078125 -7.678125 7.7 -6.65 6.961328125 -6.3359375 6.35 -5.75 5.774609375 -5.149609375 5.45 -4.45 4.4544921875 -4.3072265625 3.55 -4.1 1.25 -3.6 1.25 -2.9 1.25 -2.15 3.55 -1.65 4.455859375 -1.461328125 5.5 -1.35 5.7775390625 -0.6474609375 6.35 -0.1 6.9603515625 0.5103515625 7.65 0.8 7.805859375 1.845703125 8 2.7 8.5 5.1 9.25 5.1 9.95 5.1 10.45 2.7 10.66796875 1.8279296875 10.8 0.75 11.455859375 0.4677734375 12 -0.1 12.591015625 -0.641796875 12.9 -1.35 13.9671875 -1.4494140625 14.85 -1.65 17.25 -2.15 17.25 -2.9 17.25 -3.6 14.85 -4.1 13.9681640625 -4.3205078125 12.9 -4.45 12.5935546875 -5.1564453125 12 -5.75 11.4544921875 -6.2955078125 10.8 -6.6 10.6654296875 -7.66015625 10.45 -8.6 9.95 -10.9 9.25 -10.9 8.5 -10.9 8 -8.6 Z"
         id="path78" />
    </g>
    <g
       id="Symbol_10_0_Layer0_2_FILL">
      <path
         fill="#E05848"
         stroke="none"
         d=" M 10.95 -0.65 Q 10.35 -0.6 9.85 -0.3 9.35 0 9.05 0.45 8.3 0.3 7.7 0.3 6.05 0.25 5.9 0.7 5.8 1.2 7.25 1.95 7.8 2.2 8.5 2.5 8.55 3 8.8 3.5 9.1 4 9.6 4.35 9.45 5.05 9.45 5.65 9.35 7.4 9.85 7.5 10.35 7.65 11.1 6.1 11.35 5.55 11.65 4.9 12.15 4.75 12.6 4.5 13.1 4.2 13.45 3.85 14.2 3.9 14.85 4 16.55 4.05 16.65 3.55 16.8 3.1 15.3 2.35 14.7 2 14 1.7 13.95 1.2 13.65 0.7 13.4 0.2 13 -0.05 13.1 -0.85 13.15 -1.5 13.2 -3.15 12.7 -3.3 12.2 -3.4 11.5 -1.95 11.2 -1.4 10.95 -0.65 Z"
         id="path81" />
    </g>
    <g
       id="Symbol_10_0_Layer0_3_FILL">
      <path
         fill="#B17D49"
         stroke="none"
         d=" M 3.9 20 Q 3.95 19.85 3.9 19.7 L 2.2 16 Q 2.2 15.95 2.15 15.9 L -0.55 12.8 Q -0.6 12.7 -0.8 12.7 -0.95 12.65 -1.1 12.75 L -1.75 13.2 Q -1.85 13.25 -1.9 13.4 -1.9 13.55 -1.85 13.7 L -0.05 17.55 Q 0 17.6 0 17.65 L 2.6 20.6 Q 2.7 20.7 2.9 20.7 3.05 20.75 3.2 20.65 L 3.75 20.25 Q 3.85 20.15 3.9 20 Z"
         id="path84" />
    </g>
    <g
       id="Symbol_12_0_Layer0_0_FILL">
      <path
         fill="#25A65B"
         stroke="none"
         d=" M -10.15 0.55 L -0.55 5.1 9.05 0.55 -10.15 0.55 Z"
         id="path87" />
      <path
         fill="#2ECC71"
         stroke="none"
         d=" M 18.75 -24.65 Q 18.1 -29.1 13.65 -29.1 L -16.7 -29.1 Q -21.1 -29.1 -21.8 -24.55 -23.3 -14.25 -21.8 -3.95 -21.1 0.55 -16.7 0.55 L -10.15 0.55 9.05 0.55 13.65 0.55 Q 18.1 0.55 18.8 -4 20.35 -14.1 18.75 -24.65 Z"
         id="path89" />
    </g>
    <g
       id="Symbol_12_0_Layer0_1_FILL">
      <path
         fill="#FFFFFF"
         stroke="none"
         d=" M -7.65 -9.6 Q -6.1 -9.6 -5.1 -10.75 -4.1818359375 -11.6681640625 -4.05 -12.9 L -11.3 -12.9 Q -11.134765625 -11.6681640625 -10.3 -10.75 -9.2 -9.6 -7.65 -9.6 M 10.95 -9.6 Q 12.5 -9.6 13.5 -10.75 14.4181640625 -11.6681640625 14.55 -12.9 L 7.3 -12.9 Q 7.465234375 -11.6681640625 8.3 -10.75 9.4 -9.6 10.95 -9.6 Z"
         id="path92" />
      <path
         fill="#7E8991"
         stroke="none"
         d=" M -2.9 -17.65 Q -2.95 -18.1 -3.25 -18.35 -3.55 -18.65 -3.95 -18.6 -7.9 -18.25 -11.4 -19 -11.85 -19.1 -12.2 -18.9 -12.55 -18.7 -12.6 -18.25 -12.7 -17.85 -12.5 -17.5 -12.3 -17.15 -11.85 -17.05 -8.1 -16.25 -3.8 -16.6 -3.4 -16.65 -3.1 -16.95 -2.85 -17.25 -2.9 -17.65 M 15.15 -18.85 Q 14.8 -19.05 14.35 -18.95 10.85 -18.2 6.9 -18.55 6.5 -18.6 6.2 -18.3 5.9 -18.05 5.85 -17.6 5.8 -17.2 6.05 -16.9 6.35 -16.6 6.75 -16.55 11.05 -16.2 14.8 -17 15.25 -17.1 15.45 -17.45 15.65 -17.8 15.55 -18.2 15.5 -18.65 15.15 -18.85 Z"
         id="path94" />
    </g>
    <g
       id="Symbol_12_0_Layer0_1_MEMBER_0_FILL">
      <path
         fill="#7F7058"
         stroke="none"
         d=" M 20.85 -1.2 Q 20.95 -1.6 20.8 -2 L 17.95 0 20.1 2.55 20.1 2.5 Q 20.4 2.2 20.45 1.75 L 20.85 -1.2 Z"
         id="path97" />
      <path
         fill="#FFFFFF"
         stroke="none"
         d=" M 9 -1.6 Q 8.6 -1.2 8.6 -0.65 8.55 -0.1 8.85 0.35 9.2 0.8 9.75 0.95 L 18.6 3 Q 19 3.1 19.4 3 19.8 2.85 20.1 2.55 L 17.95 0 20.8 -2 Q 20.75 -2.05 20.75 -2.1 20.55 -2.55 20.1 -2.75 19.7 -3 19.25 -2.95 L 9.95 -2.05 Q 9.35 -2 9 -1.6 Z"
         id="path99" />
    </g>
    <g
       id="Symbol_12_0_Layer0_2_FILL">
      <path
         fill="#28B162"
         stroke="none"
         d=" M -70.5 -63.55 Q -70.55 -63.25 -70.45 -63 L -67.15 -56.05 Q -67.1 -55.95 -67.05 -55.85 L -62.35 -50.55 Q -62.15 -50.3 -61.85 -50.3 -61.55 -50.25 -61.3 -50.4 L -60.3 -51.15 Q -60.1 -51.3 -60 -51.55 -59.95 -51.85 -60.05 -52.1 L -63.05 -58.85 Q -63.1 -58.9 -63.15 -59 L -68.05 -64.6 Q -68.2 -64.8 -68.5 -64.85 -68.8 -64.9 -69.05 -64.75 L -70.2 -63.95 Q -70.4 -63.8 -70.5 -63.55 Z"
         id="path102" />
    </g>
    <g
       id="Symbol_12_0_Layer0_3_FILL">
      <path
         fill="#717B83"
         stroke="none"
         d=" M -12.65 -25 L -10.2 -29.1 -15.7 -23.5 -14.3 -22.25 -12.65 -25 M 16.45 -22.6 L 16.45 -22.6 8.35 -21.15 8.95 -19.85 16.45 -22.6 M 19.2 -11.3 L 19.55 -9.85 Q 27.615234375 -22.025390625 25.05 -37.1 L 19.7 -37.1 Q 23.43671875 -24.1875 19.2 -11.3 M -7.7 -38.75 L -4.8 -35.85 Q 3.84609375 -41.0203125 14.15 -42.9 5.384765625 -44.227734375 -2.85 -41.85 L 0 -45.75 Q -9.221484375 -47.369921875 -14.9 -41.45 L -18.55 -37.75 -21.45 -39 -26.2 -27.9 Q -25.3431640625 -25.6625 -24.95 -23.6 L -7.7 -38.75 Z"
         id="path105" />
      <path
         fill="#000000"
         fill-opacity="0.10196078431372549"
         stroke="none"
         d=" M 1.7 -22.15 L 0 -26.85 -10.2 -29.1 -12.65 -25 1.7 -22.15 Z"
         id="path107" />
      <path
         fill="#6B747B"
         stroke="none"
         d=" M 19.7 -37.1 L 17.2 -37.1 19.05 -41.85 Q 16.5802734375 -42.5087890625 14.15 -42.9 3.84609375 -41.0203125 -4.8 -35.85 L -7.7 -38.75 -24.95 -23.6 Q -24.0095703125 -19.15390625 -25.1 -15.5 -26.638671875 -10.1310546875 -21.45 -5.85 L -16.7 -13.85 -18.8 -20.35 -15.7 -23.5 -10.2 -29.1 0 -26.85 1.7 -22.15 2.45 -20.1 8.35 -21.15 16.45 -22.6 16.45 -22.6 19.2 -11.3 Q 23.43671875 -24.1875 19.7 -37.1 Z"
         id="path109" />
    </g>
    <g
       id="Symbol_15_0_Layer0_0_FILL">
      <path
         fill="#25A65B"
         stroke="none"
         d=" M -10.15 0.55 L -0.55 5.1 9.05 0.55 -10.15 0.55 Z"
         id="path112" />
      <path
         fill="#2ECC71"
         stroke="none"
         d=" M 18.75 -24.65 Q 18.1 -29.1 13.65 -29.1 L -16.7 -29.1 Q -21.1 -29.1 -21.8 -24.55 -23.3 -14.25 -21.8 -3.95 -21.1 0.55 -16.7 0.55 L -10.15 0.55 9.05 0.55 13.65 0.55 Q 18.1 0.55 18.8 -4 20.35 -14.1 18.75 -24.65 Z"
         id="path114" />
    </g>
    <g
       id="Symbol_15_0_Layer0_1_FILL">
      <path
         fill="#FFFFFF"
         stroke="none"
         d=" M -7.65 -9.6 Q -6.1 -9.6 -5.1 -10.75 -4.1818359375 -11.6681640625 -4.05 -12.9 L -11.3 -12.9 Q -11.134765625 -11.6681640625 -10.3 -10.75 -9.2 -9.6 -7.65 -9.6 M 10.95 -9.6 Q 12.5 -9.6 13.5 -10.75 14.4181640625 -11.6681640625 14.55 -12.9 L 7.3 -12.9 Q 7.465234375 -11.6681640625 8.3 -10.75 9.4 -9.6 10.95 -9.6 M 0.15 -4.8 Q 1.7849609375 -4.7962890625 3.25 -5 L 3.25 -6.45 -3 -7.05 Q -3.1595703125 -6.926953125 -3.35 -6.8 -3.7 -6.55 -3.75 -6.15 -3.85 -5.75 -3.6 -5.4 -3.3966796875 -5.048046875 -3 -4.95 -2.56015625 -4.80625 0.15 -4.8 Z"
         id="path117" />
      <path
         fill="#7F7058"
         stroke="none"
         d=" M 8.25 -7.4 Q 8.05 -7.75 7.65 -7.9 1.56015625 -9.8181640625 -3 -7.05 L 3.25 -6.45 3.25 -5 Q 4.2416015625 -5.1294921875 5.15 -5.35 7.446484375 -5.9021484375 7.8 -6.1 8.15 -6.25 8.3 -6.65 8.4 -7.05 8.25 -7.4 Z"
         id="path119" />
      <path
         fill="#7E8991"
         stroke="none"
         d=" M -3.8 -16.6 Q -3.4 -16.65 -3.1 -16.95 -2.85 -17.25 -2.9 -17.65 -2.95 -18.1 -3.25 -18.35 -3.55 -18.65 -3.95 -18.6 -7.9 -18.25 -11.4 -19 -11.85 -19.1 -12.2 -18.9 -12.55 -18.7 -12.6 -18.25 -12.7 -17.85 -12.5 -17.5 -12.3 -17.15 -11.85 -17.05 -8.1 -16.25 -3.8 -16.6 M 15.15 -18.85 Q 14.8 -19.05 14.35 -18.95 10.85 -18.2 6.9 -18.55 6.5 -18.6 6.2 -18.3 5.9 -18.05 5.85 -17.6 5.8 -17.2 6.05 -16.9 6.35 -16.6 6.75 -16.55 11.05 -16.2 14.8 -17 15.25 -17.1 15.45 -17.45 15.65 -17.8 15.55 -18.2 15.5 -18.65 15.15 -18.85 Z"
         id="path121" />
    </g>
    <g
       id="Symbol_15_0_Layer0_2_FILL">
      <path
         fill="#28B162"
         stroke="none"
         d=" M -14.6 -10.5 Q -14.65 -10.6 -14.85 -10.6 -15 -10.65 -15.15 -10.55 L -15.8 -10.1 Q -15.9 -10.05 -15.95 -9.9 -15.95 -9.75 -15.9 -9.6 L -14.1 -5.75 Q -14.05 -5.7 -14.05 -5.65 L -11.45 -2.7 Q -11.35 -2.6 -11.15 -2.6 -11 -2.55 -10.85 -2.65 L -10.3 -3.05 Q -10.2 -3.15 -10.15 -3.3 -10.1 -3.45 -10.15 -3.6 L -11.85 -7.3 Q -11.85 -7.35 -11.9 -7.4 L -14.6 -10.5 Z"
         id="path124" />
    </g>
    <g
       id="Symbol_15_0_Layer0_3_FILL">
      <path
         fill="#717B83"
         stroke="none"
         d=" M -7.7 -38.75 L -4.8 -35.85 Q 3.84609375 -41.0203125 14.15 -42.9 5.384765625 -44.227734375 -2.85 -41.85 L 0 -45.75 Q -9.221484375 -47.369921875 -14.9 -41.45 L -18.55 -37.75 -21.45 -39 -26.2 -27.9 Q -25.3431640625 -25.6625 -24.95 -23.6 L -7.7 -38.75 M -12.65 -25 L -10.2 -29.1 -15.7 -23.5 -14.3 -22.25 -12.65 -25 M 19.2 -11.3 L 19.55 -9.85 Q 27.615234375 -22.025390625 25.05 -37.1 L 19.7 -37.1 Q 23.43671875 -24.1875 19.2 -11.3 M 8.95 -19.85 L 16.45 -22.6 16.45 -22.6 8.35 -21.15 8.95 -19.85 Z"
         id="path127" />
      <path
         fill="#000000"
         fill-opacity="0.10196078431372549"
         stroke="none"
         d=" M 1.7 -22.15 L 0 -26.85 -10.2 -29.1 -12.65 -25 1.7 -22.15 Z"
         id="path129" />
      <path
         fill="#6B747B"
         stroke="none"
         d=" M 19.05 -41.85 Q 16.5802734375 -42.5087890625 14.15 -42.9 3.84609375 -41.0203125 -4.8 -35.85 L -7.7 -38.75 -24.95 -23.6 Q -24.0095703125 -19.15390625 -25.1 -15.5 -26.638671875 -10.1310546875 -21.45 -5.85 L -16.7 -13.85 -18.8 -20.35 -15.7 -23.5 -10.2 -29.1 0 -26.85 1.7 -22.15 2.45 -20.1 8.35 -21.15 16.45 -22.6 16.45 -22.6 19.2 -11.3 Q 23.43671875 -24.1875 19.7 -37.1 L 17.2 -37.1 19.05 -41.85 Z"
         id="path131" />
    </g>
  </defs>
  <g
     id="g1861"
     transform="translate(-37.474185,-288.77166)">
    <g
       id="legLeft_FL_FL_FL_FL_FL_FL_FL_FL_FL_FL_FL_FL_FL_FL_FL_FL"
       transform="matrix(1,0,-0.0464325,1,395.9814,438.24735)">
      <g
         id="g1189">
        <use
           xlink:href="#Symbol_11_0_Layer0_0_FILL"
           id="use1187"
           x="0"
           y="0"
           width="100%"
           height="100%" />
      </g>
    </g>
    <g
       id="legRight_FL_FL_FL_FL_FL_FL_FL_FL_FL_FL_FL_FL_FL_FL_FL_FL"
       transform="matrix(-1,0,0.21672058,1,415.1314,438.24735)">
      <g
         id="g1194">
        <use
           xlink:href="#Symbol_11_0_Layer0_0_FILL"
           id="use1192"
           x="0"
           y="0"
           width="100%"
           height="100%" />
      </g>
    </g>
    <g
       id="armRight_FL_FL_FL_FL_FL_FL_FL_FL_FL_FL_FL_FL_FL_FL_FL_FL_FL_FL_FL"
       transform="matrix(-0.84269714,0.53837585,0.28713989,1.0032043,420.1314,413.14735)">
      <g
         id="g1199">
        <use
           xlink:href="#Symbol_8_0_Layer0_0_FILL"
           id="use1197"
           x="0"
           y="0"
           width="100%"
           height="100%" />
      </g>
    </g>
    <g
       id="body_FL_FL_FL_FL_FL_FL_FL_FL_FL_FL_FL_FL_FL_FL_FL_FL_FL"
       transform="matrix(0.92207336,0,-0.1209259,1,404.5814,429.54735)">
      <g
         id="g1204">
        <use
           xlink:href="#Symbol_10_0_Layer0_0_FILL"
           id="use1202"
           x="0"
           y="0"
           width="100%"
           height="100%" />
      </g>
      <g
         transform="matrix(0.67247009,0.18017578,-0.18017578,0.67247009,4.55,2.4)"
         id="g1208">
        <use
           xlink:href="#Symbol_10_0_Layer0_1_FILL"
           id="use1206"
           x="0"
           y="0"
           width="100%"
           height="100%" />
      </g>
      <g
         transform="matrix(0.82962036,-0.55831909,0.55831909,0.82962036,-21.5,-4.2)"
         id="g1212">
        <use
           xlink:href="#Symbol_10_0_Layer0_2_FILL"
           id="use1210"
           x="0"
           y="0"
           width="100%"
           height="100%" />
      </g>
      <g
         transform="translate(-4.5,-16.7)"
         id="g1216">
        <use
           xlink:href="#Symbol_10_0_Layer0_3_FILL"
           id="use1214"
           x="0"
           y="0"
           width="100%"
           height="100%" />
      </g>
    </g>
    <g
       id="handRight_FL_FL_FL_FL_FL_FL_FL_FL_FL_FL_FL_FL_FL_FL_FL_FL_FL_FL_FL_FL_FL_FL_FL"
       transform="matrix(-0.25616455,-0.96656799,-0.96656799,0.25616455,425.4314,430.39735)">
      <g
         id="g1437">
        <use
           xlink:href="#Symbol_9_0_Layer0_0_FILL"
           id="use1435"
           x="0"
           y="0"
           width="100%"
           height="100%" />
      </g>
    </g>
    <g
       transform="matrix(0.99961853,0.02662659,-0.02662659,0.99961853,407.4314,411.94735)"
       id="g1513">
      <g
         id="g1499">
        <use
           xlink:href="#Symbol_15_0_Layer0_0_FILL"
           id="use1497"
           x="0"
           y="0"
           width="100%"
           height="100%" />
      </g>
      <g
         id="g1503">
        <use
           xlink:href="#Symbol_15_0_Layer0_1_FILL"
           id="use1501"
           x="0"
           y="0"
           width="100%"
           height="100%" />
      </g>
      <g
         id="g1507">
        <use
           xlink:href="#Symbol_15_0_Layer0_2_FILL"
           id="use1505"
           x="0"
           y="0"
           width="100%"
           height="100%" />
      </g>
      <g
         id="g1511">
        <use
           xlink:href="#Symbol_15_0_Layer0_3_FILL"
           id="use1509"
           x="0"
           y="0"
           width="100%"
           height="100%" />
      </g>
    </g>
    <g
       id="armLeft_FL_FL_FL_FL_FL_FL_FL_FL_FL_FL_FL_FL_FL_FL_FL_FL_FL_FL_FL_FL_FL_FL"
       transform="matrix(0.65667725,-0.75416565,0.75416565,0.65667725,395.1314,415.29735)">
      <g
         id="g1517">
        <use
           xlink:href="#Symbol_8_0_Layer0_0_FILL"
           id="use1515"
           x="0"
           y="0"
           width="100%"
           height="100%" />
      </g>
    </g>
    <g
       id="handLeft_FL_FL_FL_FL_FL_FL_FL_FL_FL_FL_FL_FL_FL_FL_FL_FL_FL_FL_FL_FL_FL_FL"
       transform="matrix(0.49998474,-0.86601257,0.86601257,0.49998474,416.3814,430.19735)">
      <g
         id="g1522">
        <use
           xlink:href="#Symbol_9_0_Layer0_0_FILL"
           id="use1520"
           x="0"
           y="0"
           width="100%"
           height="100%" />
      </g>
    </g>
  </g>
</svg>
